<?xml version="1.0" encoding="UTF-8"?>
<svg id="Ebene_1" data-name="Ebene 1" xmlns="http://www.w3.org/2000/svg" baseProfile="tiny" version="1.2" viewBox="0 0 20 20">
  <path d="M18.298,6.501h0c-.469-1.089-1.113-2.044-1.934-2.864-.82-.82-1.773-1.465-2.859-1.934s-2.25-.703-3.493-.703-2.411.234-3.504.703c-1.093.469-2.05,1.113-2.87,1.934-.82.82-1.465,1.773-1.934,2.859s-.703,2.25-.703,3.493.234,2.411.703,3.504c.469,1.093,1.113,2.05,1.934,2.87.82.82,1.777,1.465,2.871,1.934s2.26.703,3.499.703,2.403-.234,3.492-.703c1.089-.469,2.044-1.113,2.865-1.934.82-.82,1.465-1.777,1.934-2.871.469-1.094.703-2.26.703-3.499s-.234-2.403-.703-3.492ZM13,7c.552,0,1,.448,1,1s-.448,1-1,1-1-.448-1-1,.448-1,1-1ZM7,7c.552,0,1,.448,1,1s-.448,1-1,1-1-.448-1-1,.448-1,1-1ZM10,15c-2.419,0-4.436-1.718-4.899-4h1.041c.447,1.72,2,3,3.858,3s3.411-1.28,3.858-3h1.041c-.463,2.282-2.48,4-4.899,4Z" fill="#000" stroke-width="0"/>
</svg>