<svg width="12" height="16" viewBox="0 0 12 16" fill="none" xmlns="http://www.w3.org/2000/svg">
<path d="M5.9956 5.50002C6.7564 5.50002 7.4058 5.23262 7.9435 4.69792C8.4812 4.16322 8.7501 3.51542 8.7501 2.75462C8.7501 1.99382 8.4828 1.34442 7.948 0.806722C7.4132 0.269022 6.7655 0.00012207 6.0046 0.00012207C5.2437 0.00012207 4.5944 0.267422 4.0567 0.802222C3.519 1.33702 3.2501 1.98472 3.2501 2.74562C3.2501 3.50652 3.5174 4.15572 4.0522 4.69352C4.587 5.23132 5.2347 5.50002 5.9956 5.50002ZM4.762 1.51122C5.1127 1.16242 5.5077 1.00002 6.0048 1.00002C6.4997 1.00002 6.8919 1.16262 7.2391 1.51172C7.5879 1.86252 7.7503 2.25742 7.7503 2.75462C7.7503 3.24952 7.5877 3.64162 7.2385 3.98882C6.8878 4.33762 6.4928 4.50002 5.9957 4.50002C5.5008 4.50002 5.1086 4.33732 4.7614 3.98822C4.4126 3.63742 4.2502 3.24252 4.2502 2.74542C4.2502 2.25052 4.4128 1.85842 4.762 1.51122ZM10.6981 7.31252C10.1634 6.77082 9.5141 6.50002 8.7502 6.50002C8.3891 6.50002 8.0384 6.56942 7.6981 6.70832C7.3578 6.84722 7.06 7.04882 6.8045 7.31312L6.0001 8.14582L5.1957 7.31312C4.9403 7.04882 4.6424 6.84722 4.3021 6.70832C3.9618 6.56942 3.6111 6.50002 3.25 6.50002C2.4861 6.50002 1.8368 6.77082 1.3021 7.31252C0.7674 7.85412 0.5 8.50692 0.5 9.27082C0.5 9.63192 0.566 9.98612 0.6979 10.3333C0.8298 10.6805 1.0267 10.9861 1.2885 11.25L6 16L10.7115 11.25C10.9733 10.9861 11.1702 10.6805 11.3021 10.3333C11.4341 9.98612 11.5 9.63192 11.5 9.27082C11.5 8.50692 11.2329 7.85412 10.6981 7.31252ZM10.3675 9.97812C10.285 10.1951 10.1654 10.3807 10.0017 10.5458L6.0002 14.58L1.9987 10.5458C1.835 10.3808 1.7154 10.1952 1.6329 9.97822C1.5436 9.74322 1.5002 9.51192 1.5002 9.27092C1.5002 8.76922 1.6635 8.37012 2.0139 8.01512C2.3608 7.66372 2.7536 7.50012 3.2502 7.50012C3.4827 7.50012 3.7032 7.54402 3.9244 7.63432C4.1367 7.72102 4.3174 7.84332 4.4766 8.00802L5.281 8.84072L6.0002 9.58532L6.7194 8.84072L7.5237 8.00812C7.683 7.84322 7.8637 7.72092 8.076 7.63432C8.2972 7.54402 8.5177 7.50012 8.7502 7.50012C9.2468 7.50012 9.6396 7.66372 9.9865 8.01512C10.337 8.37012 10.5002 8.76922 10.5002 9.27092C10.5002 9.51192 10.4568 9.74312 10.3675 9.97812Z" fill="#9A9AC1"/>
</svg>
