<?xml version="1.0" encoding="UTF-8"?>
<svg id="Ebene_1" data-name="Ebene 1" xmlns="http://www.w3.org/2000/svg" baseProfile="tiny" version="1.2" viewBox="0 0 20 20">
  <path d="M18.297,6.501c-.469-1.089-1.113-2.044-1.934-2.865-.82-.82-1.773-1.465-2.859-1.934-1.086-.469-2.25-.703-3.493-.703s-2.411.234-3.504.703c-1.093.469-2.05,1.113-2.87,1.934-.82.82-1.465,1.773-1.934,2.859-.469,1.086-.703,2.25-.703,3.493s.234,2.411.703,3.504,1.113,2.05,1.934,2.87c.82.82,1.777,1.465,2.871,1.934,1.094.469,2.26.703,3.499.703s2.403-.234,3.492-.703c1.089-.469,2.044-1.113,2.865-1.934.82-.82,1.465-1.777,1.934-2.871.469-1.094.703-2.26.703-3.499s-.234-2.403-.703-3.492ZM17.378,13.098c-.416.971-.996,1.832-1.722,2.558s-1.585,1.306-2.553,1.722c-.959.413-2.001.622-3.097.622s-2.141-.209-3.105-.622c-.971-.416-1.832-.995-2.558-1.722-.726-.726-1.305-1.586-1.722-2.557-.413-.963-.622-2.009-.622-3.11s.209-2.142.621-3.097c.416-.964.996-1.822,1.723-2.549.726-.726,1.587-1.305,2.557-1.722.963-.413,2.009-.622,3.11-.622s2.142.209,3.097.621c.964.416,1.822.996,2.549,1.723.726.726,1.306,1.585,1.722,2.553.413.959.622,2.001.622,3.097s-.209,2.141-.622,3.105ZM10,15c2.419,0,4.436-1.718,4.899-4H5.101c.463,2.282,2.48,4,4.899,4ZM13.464,12c-.7,1.207-2.009,2-3.464,2s-2.764-.793-3.464-2h6.928ZM5.854,8.854l-.707-.707,1.854-1.854,1.854,1.854-.707.707-1.146-1.146-1.146,1.146ZM11.854,8.854l-.707-.707,1.854-1.854,1.854,1.854-.707.707-1.146-1.146-1.146,1.146Z" fill="#fff" stroke-width="0"/>
</svg>