<svg width="19" height="18" viewBox="0 0 19 18" fill="none" xmlns="http://www.w3.org/2000/svg">
<path d="M6.036 11H12.964C12.264 12.207 10.955 13 9.5 13C8.045 13 6.736 12.207 6.036 11ZM18.501 8.992C18.501 10.231 18.267 11.397 17.798 12.491C17.329 13.585 16.684 14.542 15.864 15.362C15.044 16.182 14.088 16.827 12.999 17.296C11.91 17.765 10.746 17.999 9.507 17.999C8.268 17.999 7.102 17.765 6.008 17.296C4.914 16.827 3.957 16.182 3.137 15.362C2.316 14.542 1.672 13.585 1.203 12.492C0.734 11.399 0.5 10.231 0.5 8.988C0.5 7.745 0.734 6.581 1.203 5.495C1.672 4.409 2.317 3.456 3.137 2.636C3.957 1.815 4.914 1.171 6.007 0.702001C7.1 0.233001 8.268 -0.000999451 9.511 -0.000999451C10.754 -0.000999451 11.918 0.233001 13.004 0.702001C14.09 1.171 15.043 1.816 15.863 2.636C16.684 3.457 17.328 4.412 17.797 5.501C18.266 6.589 18.501 7.753 18.501 8.992ZM10.647 7.147L11.354 7.854H11.356L12.502 6.708L13.648 7.854L14.355 7.147L12.501 5.293L10.647 7.147ZM4.647 7.147L5.354 7.854H5.356L6.502 6.708L7.648 7.854L8.355 7.147L6.501 5.293L4.647 7.147ZM14.399 10H4.601C5.064 12.282 7.081 14 9.5 14C11.919 14 13.936 12.282 14.399 10Z" fill="white"/>
</svg>
