<svg width="14" height="14" viewBox="0 0 14 14" fill="none" xmlns="http://www.w3.org/2000/svg">
<path d="M13.7604 8.3125C13.6007 7.8541 13.375 7.4375 13.0833 7.0625L10.3542 3.625L11.875 0H2.125L3.625 3.625L0.9167 7.0625C0.625 7.4375 0.3993 7.8541 0.2396 8.3125C0.0798999 8.7708 0 9.243 0 9.7291C0 10.9097 0.4167 11.9166 1.25 12.75C2.0833 13.5833 3.0903 14 4.2708 14H9.7292C10.9097 14 11.9167 13.5833 12.75 12.75C13.5833 11.9166 14 10.9097 14 9.7291C14 9.243 13.9202 8.7708 13.7604 8.3125ZM3.621 1H10.371L9.5319 3H4.4485L3.621 1ZM12.0429 12.0428C11.3989 12.6868 10.642 13 9.7292 13H4.2708C3.358 13 2.6011 12.6869 1.9571 12.0429C1.3131 11.3988 0.9999 10.642 0.9999 9.7291C0.9999 9.3575 1.0618 8.9916 1.1838 8.6415C1.3068 8.2884 1.4825 7.9636 1.7021 7.6813L4.4104 4.2438L4.6025 4H9.375L9.5709 4.2468L12.2939 7.6765C12.5173 7.9637 12.6929 8.2884 12.8161 8.6416C12.938 8.9916 12.9999 9.3575 12.9999 9.7291C12.9999 10.6419 12.687 11.3988 12.0429 12.0428Z" fill="#9A9AC1"/>
</svg>
