<svg width="19" height="18" viewBox="0 0 19 18" fill="none" xmlns="http://www.w3.org/2000/svg">
<path d="M17.797 5.501C17.328 4.412 16.684 3.457 15.863 2.637C15.043 1.817 14.09 1.172 13.004 0.703C11.918 0.234 10.754 0 9.511 0C8.268 0 7.1 0.234 6.007 0.703C4.914 1.172 3.957 1.816 3.137 2.637C2.317 3.457 1.672 4.41 1.203 5.496C0.734 6.582 0.5 7.746 0.5 8.989C0.5 10.232 0.734 11.4 1.203 12.493C1.672 13.586 2.316 14.543 3.137 15.363C3.957 16.183 4.914 16.828 6.008 17.297C7.102 17.766 8.268 18 9.507 18C10.746 18 11.91 17.766 12.999 17.297C14.088 16.828 15.043 16.184 15.864 15.363C16.684 14.543 17.329 13.586 17.798 12.492C18.267 11.398 18.501 10.232 18.501 8.993C18.501 7.754 18.266 6.59 17.797 5.501ZM16.878 12.098C16.462 13.069 15.882 13.93 15.156 14.656C14.43 15.382 13.571 15.962 12.603 16.378C11.644 16.791 10.602 17 9.506 17C8.41 17 7.365 16.791 6.401 16.378C5.43 15.962 4.569 15.383 3.843 14.656C3.117 13.93 2.538 13.07 2.121 12.099C1.708 11.136 1.499 10.09 1.499 8.989C1.499 7.888 1.708 6.847 2.12 5.892C2.536 4.928 3.116 4.07 3.843 3.343C4.569 2.617 5.43 2.038 6.4 1.621C7.363 1.208 8.409 0.999 9.51 0.999C10.611 0.999 11.652 1.208 12.607 1.62C13.571 2.036 14.429 2.616 15.156 3.343C15.882 4.069 16.462 4.928 16.878 5.896C17.291 6.855 17.5 7.897 17.5 8.993C17.5 10.089 17.291 11.134 16.878 12.098ZM5.5 7C5.5 6.448 5.948 6 6.5 6C7.052 6 7.5 6.448 7.5 7C7.5 7.552 7.052 8 6.5 8C5.948 8 5.5 7.552 5.5 7ZM13.5 7C13.5 7.552 13.052 8 12.5 8C11.948 8 11.5 7.552 11.5 7C11.5 6.448 11.948 6 12.5 6C13.052 6 13.5 6.448 13.5 7ZM9.5 11H13.5V12H9.5C8.496 12 7.59 12.383 6.894 13H5.529C6.439 11.791 7.87 11 9.5 11Z" fill="white"/>
</svg>
