<svg width="15" height="15" viewBox="0 0 15 15" fill="none" xmlns="http://www.w3.org/2000/svg">
<path d="M3.5859 5.58568L1.0001 2.99988V-0.00012207H4.0001L6.5859 2.58568L5.8787 3.29288L3.5858 0.999978H2V2.58578L4.2929 4.87868L3.5859 5.58568ZM15 -2.21729e-05V2.99998L6.7427 11.2573L7.5355 12.0501C7.9261 12.4406 7.9261 13.0738 7.5355 13.4643L6.8284 14.1714L4.8284 12.1714L2 14.9998L0 12.9998L2.8284 10.1714L0.8284 8.17138L1.5355 7.46428C1.9261 7.07368 2.5592 7.07368 2.9497 7.46428L3.7426 8.25708L12 -2.21729e-05H15ZM14 0.999878H12.4142L4.4497 8.96438L6.0355 10.5502L14 2.58568V0.999878ZM11.707 9.12128L14.0001 11.4141V12.9999H12.4143L10.1214 10.707L9.4142 11.4142L12 14H15V11L12.4142 8.41418L11.707 9.12128Z" fill="#9A9AC1"/>
</svg>
