<svg width="11" height="12" viewBox="0 0 11 12" fill="none" xmlns="http://www.w3.org/2000/svg">
<path d="M8.19922 4V3C8.19922 1.3431 6.85612 0 5.19922 0C3.54232 0 2.19922 1.3431 2.19922 3V4H0.199219V12H10.1992V4H8.19922ZM3.19922 3C3.19922 1.8972 4.09642 1 5.19922 1C6.30202 1 7.19922 1.8972 7.19922 3V4H3.19922V3ZM9.19922 11H1.19922V5H9.19922V11ZM6.19922 8C6.19922 8.5523 5.75152 9 5.19922 9C4.64692 9 4.19922 8.5523 4.19922 8C4.19922 7.4477 4.64692 7 5.19922 7C5.75152 7 6.19922 7.4477 6.19922 8Z" fill="#E6E6F5"/>
</svg>
