<svg width="15" height="17" viewBox="0 0 15 17" fill="none" xmlns="http://www.w3.org/2000/svg">
<path d="M12.2863 5.4207L14.3534 3.3536L13.6464 2.6466L11.5793 4.7137C10.3512 3.6489 8.7529 3.0001 7 3.0001C3.134 3.0001 0 6.1341 0 10.0001C0 13.8661 3.134 17.0001 7 17.0001C10.866 17.0001 14 13.8661 14 10.0001C14 8.2471 13.351 6.6487 12.2863 5.4207ZM6.9999 16C3.6915 16 0.9999 13.3084 0.9999 10C0.9999 6.6916 3.6915 4 6.9999 4C10.3083 4 12.9999 6.6916 12.9999 10C12.9999 13.3084 10.3083 16 6.9999 16ZM6.4999 6H7.4999V11H6.4999V6ZM10.9999 1H2.9999V0H10.9999V1Z" fill="#9A9AC1"/>
</svg>
