<?xml version="1.0" encoding="UTF-8"?>
<svg id="favicon" xmlns="http://www.w3.org/2000/svg" xmlns:xlink="http://www.w3.org/1999/xlink" version="1.1" viewBox="0 0 128 128">
  <defs>
    <linearGradient id="Unbenannter_Verlauf" data-name="Unbenannter Verlauf" x1="64" y1="128" x2="64" y2="0" gradientTransform="translate(0 128) scale(1 -1)" gradientUnits="userSpaceOnUse">
      <stop offset="0" stop-color="#0a0a21"/>
      <stop offset="1" stop-color="#232258"/>
    </linearGradient>
    <linearGradient id="Unbenannter_Verlauf_2" data-name="Unbenannter Verlauf 2" x1="64.2325" y1="19.334" x2="64.2325" y2="104.667" gradientTransform="translate(0 2)" gradientUnits="userSpaceOnUse">
      <stop offset="0" stop-color="#fff"/>
      <stop offset="1" stop-color="#e6e6f5"/>
    </linearGradient>
  </defs>
  <circle id="Background" cx="64" cy="64" r="64" fill="url(#Unbenannter_Verlauf)" stroke-width="0"/>
  <path id="Logo" d="M91.1346,70.7375s-.8037,5.351-6.4303,11.3695c0,0,9.9172-3.8012,9.4417-18.0668l.3962,1.8214.317,1.482c.1132.6562.1812,1.3349.2151,2.025.068,1.335-.0113,2.7038-.2377,4.0614-.4415,2.6585-1.4491,5.2718-2.9095,7.5796-2.6944,4.2424-5.5246,6.5955-10.7888,8.9938-.8038.362-1.6189.7014-2.4227.9842-.8151.2942-1.6445.5428-2.4483.7464-.5207.1357-1.0839.2718-1.6046.3736-1.9133.3168-4.0642.1923-5.4793-.8032-1.7888-1.2557.4415-3.8803.4415-3.8803-5.185.6222-5.1171,4.0839-5.1171,4.0839,0,0-2.3321-3.2015,3.5548-6.075,5.0378-2.4776,16.2342-3.2129,23.072-14.6955ZM92.6743,34.2081s8.3547,9.0277,9.7477,20.3293c1.607,12.9985-1.336,19.8994-1.336,19.8994-1.5852,5.3963-5.0607,11.5618-8.8419,15.3403-1.868,1.8554-3.0114,2.7943-5.0944,4.1745-.8378.5543-1.6982,1.0747-2.5925,1.5499-.1359.0678-.283.147-.4302.2262-1.551.8033-3.1699,1.4707-4.8227,2.025-6.6001,2.059-12.3059,1.154-12.6908,1.1313-9.17-.5882-10.0417-9.0842-10.0417-9.0842-1.6642,2.4662-.8943,6.1542-.8943,6.1542-2.1057-1.2105-3.6001-6.1769-1.8453-9.8536.6453-1.3349,1.0641-1.9232,2.0264-2.8961,1.868-1.8666,4.2227-3.1563,10.4945-5.713,2.9887-1.2218,5.1397-2.2626,6.5775-3.2015,1.7321-1.1426,3.3623-2.3871,4.3359-3.3487l.5887-.5656c-.2604,1.7309-.6227,3.5409-.634,3.5636l-.1585.8145.4981-.6675c1.9925-2.6585,3.102-5.136,3.668-6.7085-.0566.9502-.1811,2.1155-.4641,3.4165l-.1359.6109.4529-.4412c.0452-.0453,4.1887-4.1406,4.2453-11.0754.4981.5883,1.4944,1.8893,2.2981,3.8125l.1925.4638.1585-.4752c.0226-.0565,1.7547-5.4641-1.5963-11.7201.5321.4751,1.2567,1.1765,1.8567,2.0137l.3962.5543-.0566-.6788c-.0113-.1244-.2604-2.9074-3.3397-5.9732.8831.2489,2.6265.9955,5.2077,3.2016l.3962.3393-.0792-.509c-.0114-.0566-.9623-5.5547-7.7436-8.7223.9623.0113,2.5925.1018,4.2001.5317l.634.1697-.4415-.4864c-.1585-.1811-4.0869-4.2763-16.0079-2.0703-.6452.1131-1.2453.2262-1.7887.3394,2.1963-.8598,6.6681-2.1269,14.2757-2.2287l.8718-.0113-.7925-.3507c-.0566-.0226-5.7624-2.4888-13.121-1.1313.2491-.1018.4868-.2036.7019-.2828,1.6189-.5996,3.2718-.9163,6.3397-1.1992,2.7284-.2489,4.0529-.4299,5.2416-.8824,3.9284-1.3236,6.2266-4.6043,6.2492-4.6383l.6227-.8937-.8831.6335c-2.7397,1.9572-6.2944,2.8622-12.2832,3.1224-6.2831.2715-7.8001.6448-7.8567.6561-2.6038.6109-4.7095,1.5386-6.102,2.2739,1.1094-.8711,2.0717-1.4254,4.4038-2.6698,1.4604-.7806,3.0454-1.6743,3.5888-2.0363,2.3774-1.5725,4.1661-3.4957,5.1736-5.5547,1.0642-2.2173.9736-4.0613.985-4.1518l-.0566.1244c-.317.8824-.8604,1.8327-1.268,2.4549-1.9925,3.0206-4.4831,4.842-9.8605,7.2516-2.0944.939-4.3699,2.0703-5.2077,2.602.2604-1.1087,1.2114-2.2174,2.8303-3.3034,1.6642-1.12,2.8302-2.1042,3.4529-2.8961,1.3585-1.5272,1.5849-3.6654,1.6075-3.7446l-.2264.4073c-.4302.8485-1.5057,1.9006-1.9472,2.3191-1.0302.9503-2.151,1.7309-3.7585,2.6133-2.9661,1.6517-3.951,2.6925-4.585,4.842-.0793.2715-.1472.509-.2151.7127-.5774,1.5159-1.6189,2.3078-2.2189,2.6585.2943-.724.5774-1.6291.5887-1.6856l.2037-.6449-3.6793,3.2582c-.9736.7353-1.2113,1.1086-1.7094,2.6132-.4868,1.4368-.9057,2.0816-2.117,3.2695-1.4604,1.4141-3.0227,2.2173-3.5208,2.0589-.0566-.0226-.068-.0226-.0793-.1244-.0226-.3055.1811-1.2444.2604-1.5725l.1698-.7014-2.117,2.2513c-.2377.2375-.4642.4864-.6793.724-.3962.4412-.6453.7466-.7245.905-.1472.2942-.2151.7693-.2038,1.3463.0113,1.6064.2264,2.7037,1.3472,3.9142l.7812.8711.1698-.7353c.2943-1.3915,1.5396-2.2739,3.6906-2.6472-.0793.0565-.1698.1244-.2717.2036-1.9472,1.448-1.9472,1.8214-1.9472,1.9458,0,.362.5774,1.1879.9509,1.6404,0,.0113.1133.1584.3397.3733.1132.1131.2151.2036.317.2828.9509.7693,3.1472,1.9798,7.1661,1.4707l.9623-.1244-2.3208-.6222c-.1019-.0453-.2264-.0905-.3396-.1358-1.4944-.5543-2.3095-1.3349-2.5699-2.4662-.1245-.577.0113-1.1652.3963-1.7422.8264-1.2218,2.6264-2.1721,4.834-2.5567,1.4604-.2602,3.7925-.1697,5.1963.181.883.2262,1.7095.5543,2.4566.9842l.034.0226c.0566.034.1019.0566.1585.0905l.0566.034c3.4189,2.1721,3.351,6.5841,3.351,6.6294l-.034,1.4933.4076-1.4368c.6453-2.2852.6906-4.2989.1472-5.9845-.0453-.1471-.0906-.2942-.1585-.4525-.2151-.5317-.634-1.2558-.917-1.482-.6-.7127-1.3812-1.3576-2.1963-1.7875l-.5207-.2715s2.0264-.7919,5.0151-.6222c5.2529.1018,8.5021,3.4052,8.5021,3.4052-2.468-1.7422-6.1813-1.7874-6.1813-1.7874.7698.4412,2.7284,1.7987,3.3397,4.5478.4302,2.1042-.1925,4.3894-1.7434,6.437-2.0038,2.6359-6.4077,5.1021-14.2984,7.9869-3.8264,1.4028-4.268,1.5612-5.8642,2.24-3.6793,1.5612-10.2568,5.2039-12.9964,12.0822-1.2114,3.0658-1.5057,6.5388-.8038,9.8083,1.2113,5.6677,5.2868,10.4648,11.4907,13.5078.0227.011,2.1057,1.018,5.5246,1.923l1.3925.373-4.5623-2.624c-1.2906-.815-2.4793-1.754-3.5435-2.783-2.2076-2.1497-3.8265-4.6951-4.6868-7.365-1.2567-3.8916-.951-8.1453.8377-11.6636,2.9661-5.8601,8.9888-8.8014,15.4191-11.5392,3.668-1.5611,6.102-2.6811,7.6756-3.5183,3.2038-1.6969,6.3058-3.7445,7.8794-5.2152.0113-.0113.0453-.0453.1019-.0905-.8717,1.844-2.2755,3.4278-3.068,4.2423-.1925.1923-.3849.3847-.5887.577-3.2491,2.9753-7.0416,4.8985-10.9134,6.9122-3.4981,1.8213-7.4265,3.7106-9.9398,6.8556-1.517,1.6969-2.049,2.9414-2.0717,2.9753-3.4302,6.9801-1.4944,14.6955,4.8114,19.2094,3.8038,2.726,10.9587,3.733,16.0531,3.315,4.8227-.385,9.136-1.46,13.087-3.27l-.0566.068c14.0832-6.4936,23.8644-20.7365,23.8644-37.2534-.011-12.5686-5.626-23.7684-14.4567-31.2915h0ZM52.7567,43.7562c.0113-.4299.1245-1.6404.9962-2.2852.951-.7014,2.8982-.9616,3.7472-.9842-1.4038,3.4165-4.0755,3.3486-4.7434,3.2694ZM32.662,87.9331c1.3359,4.8985,3.6453,7.9756,3.6453,7.9756-5.9208-5.4415-7.9246-10.3739-8.5586-13.5981-.1245-.8258-.249-2.1155-.2151-3.4391l.0113-.3733c-1.0188,2.8961-.8037,6.1542-.8037,6.1994.0226.758.3056,1.8101.3056,1.8101,0,0-.2604-.2941-.6679-.9503-.3849-.6222-.9736-1.7761-.9736-1.7761-.3396-.7014-.7246-1.5725-1.0302-2.3305-1.4717-3.5862-2.3095-6.8669-2.8076-10.9961-.2717-2.2287-.317-7.5344-.0793-9.616.4755-4.0161,1.5397-7.9417,3.2605-11.9917,3.283-7.6928,9.0794-14.4918,16.3361-19.1301,5.4567-3.4844,11.7738-5.6678,18.7814-6.4937.283-.0339.7585-.0565,1.4038-.0791l3.2604-.1132-3.1472.8485c-10.1435,2.749-17.5474,8.4281-21.9739,12.727-3.6001,3.4957-5.8756,6.6407-6.7926,8.0209l-.4755.7353c-1.3924,2.1834-2.5585,4.4913-3.4642,6.8783-1.3472,3.5522-2.1509,7.3081-2.3774,11.1658l-.0113.2376c-.1132,1.9006-.2264,3.8577-.0566,5.7017.1019,1.1313.2264,2.3983.7585,3.8238.7698-1.2105,1.7434-2.5907,2.4567-3.4392l.7358-.8824c-.0453-.9842-.0453-6.1202,4.5737-8.2584l.9283-.4299-.4302.9277c-.8717,1.9005-.7359,3.1223-.5887,3.6427.1245-.0678.283-.1697.4642-.3167,2.434-1.7875,6.1359-2.8509,9.9058-2.8509,1.5962,0,3.1019.1923,4.4944.5544.0453.0113,1.0528.2715,2.0604.8597l1.0189.6109-1.1887.0905c-.9623.0792-1.6868.1132-2.2642.1471-1.3811.0792-2.0038.1131-3.3623.4751-1.7661.4752-3.034,1.4934-3.0567,1.516-.7698.5769-1.2679,1.3802-1.6981,2.783-.5094,1.6516-1.3698,3.0205-2.5019,3.9369-.0453.0339-1.1661.9163-2.3321,1.3575l-.917.3507.4415-.8711.5434-1.0747c.5207-1.0408.4755-1.6065.3736-1.7196-.0113-.0113-.0566-.0339-.1812-.0339-.1132,0-.2717.0226-.4415.0679-2.0151.5317-3.6114,3.2581-4.0868,6.9348-.1698,1.301-.2265,2.5228-.2265,3.688v.2149c.034,2.4323.385,4.5478.8831,6.3013.0113.034.0226.0792.0339.1132.0227.0452.0227.0565.034.0678h0Z" fill="url(#Unbenannter_Verlauf_2)" stroke-width="0"/>
</svg>